<svg version="1.1" id="Layer_1" xmlns="http://www.w3.org/2000/svg" xmlns:xlink="http://www.w3.org/1999/xlink" x="0px" y="0px"
	 width="100%" viewBox="0 0 512 512" enable-background="new 0 0 512 512" xml:space="preserve">
<path fill="#930FD5" opacity="1.000000" stroke="none" 
	d="
M0.999997,371.000000 
	C1.000000,347.645782 1.000000,324.291534 1.359763,300.445190 
	C3.363371,298.918243 5.271365,298.148163 6.612666,296.810059 
	C46.443878,257.073456 86.231789,217.293381 125.950226,177.444107 
	C127.363808,176.025848 128.001785,173.834549 129.461441,171.908401 
	C148.948212,171.872589 167.974792,171.931915 186.977875,172.351593 
	C185.801849,174.476074 184.905960,176.493195 183.455856,177.963867 
	C172.809555,188.761154 162.014618,199.411911 151.374680,210.215363 
	C149.936218,211.675934 149.100739,213.730362 147.527466,215.605728 
	C138.849228,215.701645 130.629562,215.701645 121.832123,215.701645 
	C121.832123,229.239258 121.832123,242.121689 121.482880,255.029572 
	C119.153320,256.472443 116.929947,257.646149 115.228462,259.343140 
	C79.300629,295.176270 43.449329,331.086121 7.498053,366.895630 
	C5.726704,368.659973 3.183680,369.649597 0.999997,371.000000 
z"/>
<path fill="#4E13B9" opacity="1.000000" stroke="none" 
	d="
M513.000000,174.000000 
	C513.000000,186.687561 513.000000,199.375122 512.665771,212.606079 
	C510.899414,214.254623 509.324493,215.216888 508.055542,216.485291 
	C410.798828,313.697540 313.563232,410.930878 216.362961,508.199554 
	C215.002777,509.560669 214.110611,511.389496 213.000000,513.000000 
	C202.979111,513.000000 192.958206,513.000000 182.492188,512.640259 
	C183.434677,510.283722 184.558777,508.024231 186.248840,506.329010 
	C220.090408,472.383331 254.012436,438.517853 287.845306,404.563629 
	C289.512390,402.890564 290.516754,400.557190 292.113983,398.312775 
	C301.541504,393.815887 311.139954,390.295532 319.748108,385.126129 
	C354.485382,364.265503 376.459686,333.593079 387.769958,294.772461 
	C390.115540,293.323090 392.316193,292.112152 394.024597,290.407745 
	C431.529755,252.991119 468.963318,215.502701 506.494293,178.111984 
	C508.267944,176.344940 510.813782,175.352951 513.000000,174.000000 
z"/>
<path fill="#AF0CE1" opacity="1.000000" stroke="none" 
	d="
M0.999998,212.000000 
	C1.000000,197.312439 1.000000,182.624878 1.359740,167.445129 
	C3.362179,165.919174 5.269755,165.150757 6.609391,163.813416 
	C59.107983,111.404739 111.564621,58.954006 163.956055,6.438249 
	C165.368546,5.022401 166.002823,2.830176 167.000000,0.999997 
	C181.687561,1.000000 196.375122,1.000000 211.507782,1.359742 
	C210.917862,3.363470 210.148560,5.272826 208.809708,6.613382 
	C141.402054,74.107674 73.953362,141.561005 6.442614,208.952148 
	C5.025936,210.366333 2.831565,211.001434 0.999998,212.000000 
z"/>
<path fill="#4714B7" opacity="1.000000" stroke="none" 
	d="
M213.468658,513.000000 
	C214.110611,511.389496 215.002777,509.560669 216.362961,508.199554 
	C313.563232,410.930878 410.798828,313.697540 508.055542,216.485291 
	C509.324493,215.216888 510.899414,214.254623 512.665771,213.074738 
	C513.000000,222.687561 513.000000,232.375122 512.665771,242.606079 
	C510.899536,244.254547 509.324768,245.216766 508.055847,246.485031 
	C420.798950,333.697083 333.563202,420.930267 246.363327,508.199310 
	C245.003098,509.560608 244.110718,511.389404 243.000000,513.000000 
	C233.312439,513.000000 223.624878,513.000000 213.468658,513.000000 
z"/>
<path fill="#3315AE" opacity="1.000000" stroke="none" 
	d="
M370.000000,513.000000 
	C354.312439,513.000000 338.624878,513.000000 322.543427,512.665771 
	C323.254883,510.899353 324.217682,509.324707 325.486023,508.055359 
	C386.362640,447.131897 447.260834,386.229980 508.197021,325.366119 
	C509.559479,324.005249 511.388550,323.111572 513.000000,322.000000 
	C513.000000,337.687561 513.000000,353.375122 512.665771,369.606018 
	C510.898712,371.255249 509.323792,372.218842 508.053680,373.487610 
	C463.130188,418.361938 418.228668,463.258331 373.367920,508.195343 
	C372.006775,509.558807 371.112152,511.387970 370.000000,513.000000 
z"/>
<path fill="#850FCF" opacity="1.000000" stroke="none" 
	d="
M0.999997,371.467590 
	C3.183680,369.649597 5.726704,368.659973 7.498053,366.895630 
	C43.449329,331.086121 79.300629,295.176270 115.228462,259.343140 
	C116.929947,257.646149 119.153320,256.472443 121.550140,255.493759 
	C121.921555,278.622894 121.876457,301.313263 121.509209,324.086029 
	C119.537704,325.532593 117.765144,326.773407 116.257118,328.279144 
	C84.368019,360.120239 52.518406,392.000916 20.615025,423.827667 
	C19.011009,425.427856 16.991940,426.611938 15.002974,427.660278 
	C10.892323,415.129883 6.968763,402.920990 2.953657,390.742340 
	C2.617999,389.724182 1.665769,388.909302 1.000000,388.000000 
	C1.000000,382.645081 1.000000,377.290131 0.999997,371.467590 
z"/>
<path fill="#A70DDE" opacity="1.000000" stroke="none" 
	d="
M0.999998,212.468658 
	C2.831565,211.001434 5.025936,210.366333 6.442614,208.952148 
	C73.953362,141.561005 141.402054,74.107674 208.809708,6.613382 
	C210.148560,5.272826 210.917862,3.363470 211.976440,1.359742 
	C223.020889,1.000000 234.041794,1.000000 245.456635,1.334261 
	C244.513306,3.332778 243.317520,5.138261 241.817917,6.640475 
	C210.233658,38.279835 178.594559,69.864502 147.058090,101.551361 
	C145.299957,103.317879 144.334641,105.873444 142.541595,108.166061 
	C135.531540,108.270363 128.980179,108.270363 121.832321,108.270363 
	C121.832321,116.901344 121.832321,124.951630 121.498260,133.077271 
	C118.915131,134.796127 116.405251,136.178040 114.455658,138.121902 
	C78.440521,174.031326 42.501839,210.017441 6.498162,245.938370 
	C4.902748,247.530106 2.843302,248.656738 1.000001,250.000000 
	C1.000000,237.645767 1.000000,225.291550 0.999998,212.468658 
z"/>
<path fill="#8510CF" opacity="1.000000" stroke="none" 
	d="
M379.000000,1.000001 
	C381.700623,1.000000 384.401276,1.000000 387.338196,1.376823 
	C390.167725,2.500466 392.803314,3.126133 395.346954,4.014984 
	C406.615173,7.952513 417.856964,11.965618 428.816650,16.125565 
	C426.946442,17.770044 425.321106,19.193502 423.796295,20.717491 
	C390.877716,53.617920 357.954956,86.514198 325.089752,119.467880 
	C322.417969,122.146896 320.154816,125.233482 317.359863,128.073517 
	C303.222687,120.065010 288.333801,114.964157 273.035706,110.761322 
	C274.476318,108.367126 275.554993,106.035484 277.259003,104.327843 
	C310.427826,71.088081 343.676605,37.928097 376.862030,4.704869 
	C377.835449,3.730360 378.298828,2.246419 379.000000,1.000001 
z"/>
<path fill="#B90CE5" opacity="1.000000" stroke="none" 
	d="
M166.531342,0.999997 
	C166.002823,2.830176 165.368546,5.022401 163.956055,6.438249 
	C111.564621,58.954006 59.107983,111.404739 6.609391,163.813416 
	C5.269755,165.150757 3.362179,165.919174 1.359740,166.976471 
	C1.000000,153.645767 1.000000,140.291550 1.302357,126.817734 
	C2.457824,123.461090 3.310934,120.224030 4.318482,116.821243 
	C4.658248,116.415390 4.819731,116.160187 4.962305,115.923897 
	C4.967243,115.957893 4.900633,115.941040 5.266571,115.931030 
	C7.287579,114.914482 9.223358,114.189507 10.556691,112.860245 
	C44.509930,79.010834 78.419258,45.117241 112.243736,11.139252 
	C113.905708,9.469736 114.729973,6.966291 116.149536,4.504683 
	C119.324883,3.740412 122.306061,3.381354 125.250603,2.827475 
	C125.602531,2.761275 125.755051,1.634945 126.000000,1.000000 
	C139.354233,1.000000 152.708450,1.000000 166.531342,0.999997 
z"/>
<path fill="#A00DDA" opacity="1.000000" stroke="none" 
	d="
M1.000001,250.468658 
	C2.843302,248.656738 4.902748,247.530106 6.498162,245.938370 
	C42.501839,210.017441 78.440521,174.031326 114.455658,138.121902 
	C116.405251,136.178040 118.915131,134.796127 121.566452,133.541443 
	C121.968704,146.417343 121.968704,158.904419 121.968704,171.489349 
	C124.772362,171.694336 126.886803,171.848938 129.001251,172.003540 
	C128.001785,173.834549 127.363808,176.025848 125.950226,177.444107 
	C86.231789,217.293381 46.443878,257.073456 6.612666,296.810059 
	C5.271365,298.148163 3.363371,298.918243 1.359763,299.976532 
	C1.000000,283.645782 1.000000,267.291534 1.000001,250.468658 
z"/>
<path fill="#4214B5" opacity="1.000000" stroke="none" 
	d="
M243.468628,513.000000 
	C244.110718,511.389404 245.003098,509.560608 246.363327,508.199310 
	C333.563202,420.930267 420.798950,333.697083 508.055847,246.485031 
	C509.324768,245.216766 510.899536,244.254547 512.665771,243.074738 
	C513.000000,250.354248 513.000000,257.708496 512.665771,265.606140 
	C510.899902,267.254181 509.325623,268.216156 508.057068,269.484009 
	C428.466003,349.029785 348.896118,428.596710 269.362640,508.200073 
	C268.002716,509.561218 267.110474,511.389648 266.000000,513.000000 
	C258.645752,513.000000 251.291504,513.000000 243.468628,513.000000 
z"/>
<path fill="#910FD4" opacity="1.000000" stroke="none" 
	d="
M378.531342,1.000001 
	C378.298828,2.246419 377.835449,3.730360 376.862030,4.704869 
	C343.676605,37.928097 310.427826,71.088081 277.259003,104.327843 
	C275.554993,106.035484 274.476318,108.367126 272.612701,110.785965 
	C262.046387,110.400276 251.982941,109.466438 241.898361,108.930611 
	C234.614578,108.543617 227.302673,108.685722 220.035919,108.257996 
	C221.409882,106.085251 222.536057,104.031792 224.124359,102.439194 
	C255.702042,70.776382 287.353241,39.186848 318.899994,7.493284 
	C320.662354,5.722697 321.651154,3.182165 323.000000,1.000002 
	C341.354218,1.000000 359.708466,1.000000 378.531342,1.000001 
z"/>
<path fill="#2A16AB" opacity="1.000000" stroke="none" 
	d="
M370.467957,513.000000 
	C371.112152,511.387970 372.006775,509.558807 373.367920,508.195343 
	C418.228668,463.258331 463.130188,418.361938 508.053680,373.487610 
	C509.323792,372.218842 510.898712,371.255249 512.665771,370.074707 
	C513.000000,375.688049 513.000000,381.376068 512.599792,387.448975 
	C511.830475,388.336639 511.277679,388.787781 511.119659,389.349945 
	C508.371826,399.123535 506.405731,409.188629 502.822754,418.641968 
	C492.771484,445.160919 476.069672,467.019531 453.290344,483.826019 
	C434.290497,497.844055 413.147247,507.466125 389.571014,511.140686 
	C388.965454,511.235046 388.520081,512.357178 388.000000,513.000000 
	C382.311951,513.000000 376.623932,513.000000 370.467957,513.000000 
z"/>
<path fill="#5613BD" opacity="1.000000" stroke="none" 
	d="
M513.000000,173.531342 
	C510.813782,175.352951 508.267944,176.344940 506.494293,178.111984 
	C468.963318,215.502701 431.529755,252.991119 394.024597,290.407745 
	C392.316193,292.112152 390.115540,293.323090 387.813049,294.360260 
	C391.724976,277.241302 392.823120,260.280182 391.831116,243.051361 
	C395.006592,240.949524 398.133026,239.252197 400.553955,236.845245 
	C428.022888,209.534851 455.383881,182.115936 482.773773,154.726044 
	C490.870728,146.629120 498.935883,138.499893 507.095581,130.466766 
	C508.472900,129.110825 510.257965,128.169098 512.149719,127.306305 
	C512.629883,127.384422 512.814941,127.192207 513.000000,127.000000 
	C513.000000,142.354233 513.000000,157.708450 513.000000,173.531342 
z"/>
<path fill="#3915B1" opacity="1.000000" stroke="none" 
	d="
M513.000000,321.531342 
	C511.388550,323.111572 509.559479,324.005249 508.197021,325.366119 
	C447.260834,386.229980 386.362640,447.131897 325.486023,508.055359 
	C324.217682,509.324707 323.254883,510.899353 322.074768,512.665771 
	C313.979095,513.000000 305.958191,513.000000 297.543365,512.665771 
	C298.254425,510.899658 299.216736,509.325256 300.484772,508.056396 
	C369.696106,438.798981 438.928833,369.562988 508.198730,300.364136 
	C509.560455,299.003815 511.389160,298.110931 513.000000,297.000000 
	C513.000000,305.020905 513.000000,313.041809 513.000000,321.531342 
z"/>
<path fill="#9A0ED8" opacity="1.000000" stroke="none" 
	d="
M322.531342,1.000002 
	C321.651154,3.182165 320.662354,5.722697 318.899994,7.493284 
	C287.353241,39.186848 255.702042,70.776382 224.124359,102.439194 
	C222.536057,104.031792 221.409882,106.085251 219.573044,108.336304 
	C205.054565,108.657982 191.031570,108.567490 177.018707,108.131882 
	C178.304504,105.739204 179.246384,103.359238 180.905304,101.693314 
	C212.538605,69.926414 244.267212,38.254440 275.924591,6.511429 
	C277.520538,4.911151 278.652161,2.847756 280.000000,0.999997 
	C294.020905,1.000000 308.041779,1.000000 322.531342,1.000002 
z"/>
<path fill="#000000" opacity="1.000000" stroke="none" 
	d="
M513.000000,126.531342 
	C512.814941,127.192207 512.629883,127.384422 512.078674,126.917740 
	C507.827423,113.801712 503.942352,101.344566 500.016357,88.527298 
	C494.330811,78.738533 488.686188,69.309898 482.896606,59.580250 
	C475.870850,52.170357 468.990021,45.061478 461.959473,37.645664 
	C451.925781,28.655396 441.326141,21.066313 429.108337,15.951376 
	C417.856964,11.965618 406.615173,7.952513 395.346954,4.014984 
	C392.803314,3.126133 390.167725,2.500466 387.787231,1.376823 
	C429.593933,1.000000 471.187866,1.000000 513.000000,1.000000 
	C513.000000,42.687305 513.000000,84.374992 513.000000,126.531342 
z"/>
<path fill="#000000" opacity="1.000000" stroke="none" 
	d="
M125.531342,1.000000 
	C125.755051,1.634945 125.602531,2.761275 125.250603,2.827475 
	C122.306061,3.381354 119.324883,3.740412 115.746353,4.571729 
	C112.807426,5.638936 110.489059,6.340320 108.144455,6.938924 
	C84.445099,12.989632 64.451302,25.658949 46.661095,41.964317 
	C35.404533,52.281357 26.401646,64.582970 19.129250,77.948586 
	C12.636288,89.881714 7.046881,102.307030 4.900633,115.941040 
	C4.900633,115.941040 4.967243,115.957893 4.713239,116.014145 
	C4.360838,116.375931 4.262441,116.681450 4.164045,116.986977 
	C3.310934,120.224030 2.457824,123.461090 1.302357,126.349075 
	C1.000000,84.406364 1.000000,42.812733 1.000000,1.000000 
	C42.353970,1.000000 83.708328,1.000000 125.531342,1.000000 
z"/>
<path fill="#000000" opacity="1.000000" stroke="none" 
	d="
M1.000000,388.468658 
	C1.665769,388.909302 2.617999,389.724182 2.953657,390.742340 
	C6.968763,402.920990 10.892323,415.129883 15.043442,428.010620 
	C21.802645,441.056122 28.603472,453.253113 38.942650,463.397705 
	C39.522060,464.544403 39.899609,465.524689 40.604286,466.113434 
	C49.707428,473.718903 58.857159,481.268616 68.311188,488.993652 
	C69.585686,489.769409 70.488678,490.502625 71.511093,490.980133 
	C81.648766,495.715271 91.806183,500.408142 102.169403,505.425568 
	C109.803619,507.513367 117.235031,509.254730 124.632668,511.129456 
	C125.209419,511.275604 125.549789,512.354553 126.000015,513.000000 
	C84.406364,513.000000 42.812729,513.000000 1.000000,513.000000 
	C1.000000,471.646027 1.000000,430.291687 1.000000,388.468658 
z"/>
<path fill="#000000" opacity="1.000000" stroke="none" 
	d="
M388.468689,513.000000 
	C388.520081,512.357178 388.965454,511.235046 389.571014,511.140686 
	C413.147247,507.466125 434.290497,497.844055 453.290344,483.826019 
	C476.069672,467.019531 492.771484,445.160919 502.822754,418.641968 
	C506.405731,409.188629 508.371826,399.123535 511.119659,389.349945 
	C511.277679,388.787781 511.830475,388.336639 512.599792,387.916931 
	C513.000000,429.593628 513.000000,471.187256 513.000000,513.000000 
	C471.646027,513.000000 430.291687,513.000000 388.468689,513.000000 
z"/>
<path fill="#5C12BF" opacity="1.000000" stroke="none" 
	d="
M126.444183,513.000000 
	C125.549789,512.354553 125.209419,511.275604 124.632668,511.129456 
	C117.235031,509.254730 109.803619,507.513367 102.247589,505.083984 
	C103.556648,502.639435 104.848740,500.699249 106.463455,499.080994 
	C134.637375,470.845245 162.881104,442.679077 191.001328,414.390076 
	C193.393036,411.984070 195.018341,408.816223 197.459335,405.903656 
	C210.612671,405.870239 223.306335,405.935455 235.925217,406.334839 
	C234.512894,408.333374 233.316757,410.138855 231.817017,411.641327 
	C200.582138,442.931427 169.281677,474.156189 138.125580,505.524384 
	C136.196732,507.466339 135.350128,510.483246 134.000000,513.000000 
	C131.629440,513.000000 129.258896,513.000000 126.444183,513.000000 
z"/>
<path fill="#3F14B3" opacity="1.000000" stroke="none" 
	d="
M266.466858,513.000000 
	C267.110474,511.389648 268.002716,509.561218 269.362640,508.200073 
	C348.896118,428.596710 428.466003,349.029785 508.057068,269.484009 
	C509.325623,268.216156 510.899902,267.254181 512.665771,266.074768 
	C513.000000,271.022095 513.000000,276.044189 512.665771,281.607880 
	C510.898651,283.255432 509.323242,284.218719 508.053375,285.487793 
	C433.798187,359.697327 359.564301,433.928131 285.367218,508.195709 
	C284.005859,509.558380 283.111969,511.388153 282.000000,513.000000 
	C276.977905,513.000000 271.955811,513.000000 266.466858,513.000000 
z"/>
<path fill="#A20FDB" opacity="1.000000" stroke="none" 
	d="
M279.531342,0.999997 
	C278.652161,2.847756 277.520538,4.911151 275.924591,6.511429 
	C244.267212,38.254440 212.538605,69.926414 180.905304,101.693314 
	C179.246384,103.359238 178.304504,105.739204 176.550980,108.168564 
	C165.048859,108.387497 154.024582,108.224625 143.000305,108.061752 
	C144.334641,105.873444 145.299957,103.317879 147.058090,101.551361 
	C178.594559,69.864502 210.233658,38.279835 241.817917,6.640475 
	C243.317520,5.138261 244.513306,3.332778 245.925293,1.334261 
	C257.020905,1.000000 268.041779,1.000000 279.531342,0.999997 
z"/>
<path fill="#3C15B2" opacity="1.000000" stroke="none" 
	d="
M282.466125,513.000000 
	C283.111969,511.388153 284.005859,509.558380 285.367218,508.195709 
	C359.564301,433.928131 433.798187,359.697327 508.053375,285.487793 
	C509.323242,284.218719 510.898651,283.255432 512.665771,282.074738 
	C513.000000,286.689240 513.000000,291.378510 513.000000,296.533875 
	C511.389160,298.110931 509.560455,299.003815 508.198730,300.364136 
	C438.928833,369.562988 369.696106,438.798981 300.484772,508.056396 
	C299.216736,509.325256 298.254425,510.899658 297.074707,512.665771 
	C292.310760,513.000000 287.621490,513.000000 282.466125,513.000000 
z"/>
<path fill="#5313BB" opacity="1.000000" stroke="none" 
	d="
M291.829712,398.531311 
	C290.516754,400.557190 289.512390,402.890564 287.845306,404.563629 
	C254.012436,438.517853 220.090408,472.383331 186.248840,506.329010 
	C184.558777,508.024231 183.434677,510.283722 182.023529,512.640259 
	C173.645767,513.000000 165.291534,513.000000 156.543381,512.665771 
	C157.489288,510.664703 158.687744,508.856750 160.189850,507.351929 
	C191.120575,476.365723 222.113586,445.441620 252.990204,414.401672 
	C255.386627,411.992645 257.014832,408.819397 259.392914,405.891846 
	C270.467072,403.365356 281.148407,400.948334 291.829712,398.531311 
z"/>
<path fill="#5713BD" opacity="1.000000" stroke="none" 
	d="
M259.000061,406.001312 
	C257.014832,408.819397 255.386627,411.992645 252.990204,414.401672 
	C222.113586,445.441620 191.120575,476.365723 160.189850,507.351929 
	C158.687744,508.856750 157.489288,510.664703 156.074738,512.665771 
	C148.979050,513.000000 141.958099,513.000000 134.468567,513.000000 
	C135.350128,510.483246 136.196732,507.466339 138.125580,505.524384 
	C169.281677,474.156189 200.582138,442.931427 231.817017,411.641327 
	C233.316757,410.138855 234.512894,408.333374 236.384552,406.234894 
	C244.279144,405.867584 251.639603,405.934448 259.000061,406.001312 
z"/>
<path fill="#FEFEFF" opacity="1.000000" stroke="none" 
	d="
M259.392914,405.891846 
	C251.639603,405.934448 244.279144,405.867584 236.459351,405.900696 
	C223.306335,405.935455 210.612671,405.870239 197.000610,405.800415 
	C179.721710,405.864746 163.361206,405.933716 146.541687,405.900208 
	C138.198730,405.797760 130.314789,405.797760 121.831398,405.797760 
	C121.831398,397.457916 121.831398,389.730621 121.903847,381.539429 
	C121.927986,362.051544 121.879677,343.027618 121.831360,324.003662 
	C121.876457,301.313263 121.921555,278.622894 121.899384,255.468307 
	C121.832123,242.121689 121.832123,229.239258 121.832123,215.701645 
	C130.629562,215.701645 138.849228,215.701645 147.987823,215.703918 
	C160.947174,215.801819 172.987549,215.897430 185.041977,216.461914 
	C185.118515,232.622971 185.181030,248.315140 185.168228,264.470093 
	C185.142990,281.290955 185.193054,297.649048 185.167511,314.469849 
	C185.091934,323.993591 185.091934,333.054535 185.091934,342.212738 
	C191.789932,342.212738 197.887833,342.212738 204.438171,342.344849 
	C217.587830,342.389130 230.285049,342.301300 243.428864,342.346588 
	C256.058838,343.472961 267.179626,340.115448 278.386566,335.482544 
	C308.271454,323.128418 330.690948,288.292450 328.762878,255.585999 
	C328.204285,243.908798 326.422546,232.920471 321.077759,222.424744 
	C315.792877,214.345245 310.534332,206.617844 305.137726,198.577271 
	C296.252136,189.240875 286.376862,181.912094 274.058685,177.584351 
	C259.031067,171.212921 243.555206,171.266861 227.542267,171.888290 
	C213.722549,171.854507 200.361954,171.922867 187.001373,171.991241 
	C167.974792,171.931915 148.948212,171.872589 129.461441,171.908401 
	C126.886803,171.848938 124.772362,171.694336 121.968704,171.489349 
	C121.968704,158.904419 121.968704,146.417343 121.900513,133.466095 
	C121.832321,124.951630 121.832321,116.901344 121.832321,108.270363 
	C128.980179,108.270363 135.531540,108.270363 142.541595,108.166061 
	C154.024582,108.224625 165.048859,108.387497 176.540863,108.513687 
	C191.031570,108.567490 205.054565,108.657982 219.540436,108.670166 
	C227.302673,108.685722 234.614578,108.543617 241.898361,108.930611 
	C251.982941,109.466438 262.046387,110.400276 272.541931,111.139038 
	C288.333801,114.964157 303.222687,120.065010 317.565186,128.356415 
	C328.124084,136.335617 338.135651,143.974731 348.338135,151.893555 
	C355.323425,160.523666 362.117828,168.874100 368.977417,177.560547 
	C373.629486,186.958038 378.216339,196.019501 382.839417,205.466003 
	C385.735229,218.276123 388.594788,230.701187 391.454376,243.126251 
	C392.823120,260.280182 391.724976,277.241302 387.438843,294.368866 
	C376.459686,333.593079 354.485382,364.265503 319.748108,385.126129 
	C311.139954,390.295532 301.541504,393.815887 292.114014,398.312805 
	C281.148407,400.948334 270.467072,403.365356 259.392914,405.891846 
z"/>
<path fill="#8C15D2" opacity="1.000000" stroke="none" 
	d="
M186.977875,172.351593 
	C200.361954,171.922867 213.722549,171.854507 227.466827,172.222961 
	C226.633514,174.205505 225.554565,175.888321 224.177597,177.275223 
	C213.301361,188.229996 202.380371,199.140503 191.441940,210.033264 
	C189.375183,212.091385 187.169510,214.010040 185.027939,215.993042 
	C172.987549,215.897430 160.947174,215.801819 148.446411,215.608002 
	C149.100739,213.730362 149.936218,211.675934 151.374680,210.215363 
	C162.014618,199.411911 172.809555,188.761154 183.455856,177.963867 
	C184.905960,176.493195 185.801849,174.476074 186.977875,172.351593 
z"/>
<path fill="#7910CB" opacity="1.000000" stroke="none" 
	d="
M121.509209,324.086029 
	C121.879677,343.027618 121.927986,362.051544 121.581726,381.621674 
	C119.540863,383.529144 117.772095,384.767761 116.266533,386.270081 
	C92.065765,410.419006 67.903519,434.606506 43.711689,458.764404 
	C42.193279,460.280670 40.503105,461.624969 38.892845,463.049286 
	C28.603472,453.253113 21.802645,441.056122 15.206586,428.340057 
	C16.991940,426.611938 19.011009,425.427856 20.615025,423.827667 
	C52.518406,392.000916 84.368019,360.120239 116.257118,328.279144 
	C117.765144,326.773407 119.537704,325.532593 121.509209,324.086029 
z"/>
<path fill="#7910CB" opacity="1.000000" stroke="none" 
	d="
M348.147247,151.613861 
	C338.135651,143.974731 328.124084,136.335617 317.907166,128.413589 
	C320.154816,125.233482 322.417969,122.146896 325.089752,119.467880 
	C357.954956,86.514198 390.877716,53.617920 423.796295,20.717491 
	C425.321106,19.193502 426.946442,17.770044 428.816650,16.125566 
	C441.326141,21.066313 451.925781,28.655396 461.711029,37.873489 
	C460.283600,39.896603 459.024139,41.454121 457.616119,42.863178 
	C422.780304,77.724808 387.933472,112.575371 353.064514,147.403809 
	C351.542328,148.924210 349.791565,150.215744 348.147247,151.613861 
z"/>
<path fill="#C10BE8" opacity="1.000000" stroke="none" 
	d="
M5.266571,115.931030 
	C7.046881,102.307030 12.636288,89.881714 19.129250,77.948586 
	C26.401646,64.582970 35.404533,52.281357 46.661095,41.964317 
	C64.451302,25.658949 84.445099,12.989632 108.144455,6.938924 
	C110.489059,6.340320 112.807426,5.638936 115.541145,4.918211 
	C114.729973,6.966291 113.905708,9.469736 112.243736,11.139252 
	C78.419258,45.117241 44.509930,79.010834 10.556691,112.860245 
	C9.223358,114.189507 7.287579,114.914482 5.266571,115.931030 
z"/>
<path fill="#C10BE8" opacity="1.000000" stroke="none" 
	d="
M4.318482,116.821243 
	C4.262441,116.681450 4.360838,116.375931 4.708301,115.980148 
	C4.819731,116.160187 4.658248,116.415390 4.318482,116.821243 
z"/>
<path fill="#5F12C0" opacity="1.000000" stroke="none" 
	d="
M391.831116,243.051361 
	C388.594788,230.701187 385.735229,218.276123 383.139038,205.293671 
	C384.989960,203.269196 386.629608,201.854218 388.157349,200.327301 
	C422.921021,165.583557 457.667908,130.823029 492.435699,96.083405 
	C494.906342,93.614784 497.513580,91.282890 500.057312,88.887413 
	C503.942352,101.344566 507.827423,113.801712 511.783569,126.647415 
	C510.257965,128.169098 508.472900,129.110825 507.095581,130.466766 
	C498.935883,138.499893 490.870728,146.629120 482.773773,154.726044 
	C455.383881,182.115936 428.022888,209.534851 400.553955,236.845245 
	C398.133026,239.252197 395.006592,240.949524 391.831116,243.051361 
z"/>
<path fill="#6811C4" opacity="1.000000" stroke="none" 
	d="
M500.016357,88.527283 
	C497.513580,91.282890 494.906342,93.614784 492.435699,96.083405 
	C457.667908,130.823029 422.921021,165.583557 388.157349,200.327301 
	C386.629608,201.854218 384.989960,203.269196 383.102783,204.908630 
	C378.216339,196.019501 373.629486,186.958038 369.062073,177.207489 
	C370.919922,173.980148 372.456879,171.141556 374.641754,168.948532 
	C409.085663,134.376511 443.617065,99.891693 478.108673,65.367180 
	C479.844360,63.629848 481.401367,61.713989 483.041565,59.881264 
	C488.686188,69.309898 494.330811,78.738533 500.016357,88.527283 
z"/>
<path fill="#7011C7" opacity="1.000000" stroke="none" 
	d="
M482.896606,59.580254 
	C481.401367,61.713989 479.844360,63.629848 478.108673,65.367180 
	C443.617065,99.891693 409.085663,134.376511 374.641754,168.948532 
	C372.456879,171.141556 370.919922,173.980148 368.996887,176.871460 
	C362.117828,168.874100 355.323425,160.523666 348.338135,151.893555 
	C349.791565,150.215744 351.542328,148.924210 353.064514,147.403809 
	C387.933472,112.575371 422.780304,77.724808 457.616119,42.863178 
	C459.024139,41.454121 460.283600,39.896603 461.860718,38.180420 
	C468.990021,45.061478 475.870850,52.170357 482.896606,59.580254 
z"/>
<path fill="#6512C3" opacity="1.000000" stroke="none" 
	d="
M147.000687,406.002686 
	C163.361206,405.933716 179.721710,405.864746 196.540955,405.899048 
	C195.018341,408.816223 193.393036,411.984070 191.001328,414.390076 
	C162.881104,442.679077 134.637375,470.845245 106.463455,499.080994 
	C104.848740,500.699249 103.556648,502.639435 102.036217,504.771362 
	C91.806183,500.408142 81.648766,495.715271 71.511093,490.980133 
	C70.488678,490.502625 69.585686,489.769409 68.395050,488.671814 
	C69.530624,486.537109 70.776268,484.763550 72.284500,483.252014 
	C95.934113,459.550232 119.642555,435.907013 143.239365,412.152924 
	C144.887100,410.494202 145.764877,408.070618 147.000687,406.002686 
z"/>
<path fill="#6F11C7" opacity="1.000000" stroke="none" 
	d="
M146.541687,405.900208 
	C145.764877,408.070618 144.887100,410.494202 143.239365,412.152924 
	C119.642555,435.907013 95.934113,459.550232 72.284500,483.252014 
	C70.776268,484.763550 69.530624,486.537109 68.078972,488.510620 
	C58.857159,481.268616 49.707428,473.718903 40.604286,466.113434 
	C39.899609,465.524689 39.522060,464.544403 38.942654,463.397705 
	C40.503105,461.624969 42.193279,460.280670 43.711689,458.764404 
	C67.903519,434.606506 92.065765,410.419006 116.266533,386.270081 
	C117.772095,384.767761 119.540863,383.529144 121.509277,382.085571 
	C121.831398,389.730621 121.831398,397.457916 121.831398,405.797760 
	C130.314789,405.797760 138.198730,405.797760 146.541687,405.900208 
z"/>
<path fill="#7011C7" opacity="1.000000" stroke="none" 
	d="
M305.275757,198.890442 
	C310.534332,206.617844 315.792877,214.345245 320.904236,222.726456 
	C319.290497,224.967728 317.876343,226.607544 316.349762,228.134979 
	C280.200775,264.303802 244.028961,300.449829 207.916794,336.655365 
	C206.337082,338.239136 205.284073,340.348297 203.985718,342.212738 
	C197.887833,342.212738 191.789932,342.212738 185.091934,342.212738 
	C185.091934,333.054535 185.091934,323.993591 185.511810,314.441711 
	C187.788773,312.632874 189.878845,311.548523 191.468704,309.962677 
	C226.846603,274.674377 262.146118,239.307449 297.559418,204.054794 
	C299.712036,201.911926 302.684662,200.592834 305.275757,198.890442 
z"/>
<path fill="#7910CA" opacity="1.000000" stroke="none" 
	d="
M305.137726,198.577271 
	C302.684662,200.592834 299.712036,201.911926 297.559418,204.054794 
	C262.146118,239.307449 226.846603,274.674377 191.468704,309.962677 
	C189.878845,311.548523 187.788773,312.632874 185.587402,313.978943 
	C185.193054,297.649048 185.142990,281.290955 185.519867,264.442627 
	C188.403976,262.362061 191.235214,261.146698 193.261749,259.124756 
	C220.349152,232.099350 247.324066,204.961166 274.326935,177.851013 
	C286.376862,181.912094 296.252136,189.240875 305.137726,198.577271 
z"/>
<path fill="#6812C4" opacity="1.000000" stroke="none" 
	d="
M204.438156,342.344849 
	C205.284073,340.348297 206.337082,338.239136 207.916794,336.655365 
	C244.028961,300.449829 280.200775,264.303802 316.349762,228.134979 
	C317.876343,226.607544 319.290497,224.967728 320.930542,223.078583 
	C326.422546,232.920471 328.204285,243.908798 328.440155,255.669373 
	C326.272461,257.366302 324.261261,258.318970 322.775391,259.798981 
	C297.088623,285.384521 271.445282,311.013855 245.887878,336.728455 
	C244.492432,338.132477 243.931625,340.366058 242.982300,342.213470 
	C230.285049,342.301300 217.587830,342.389130 204.438156,342.344849 
z"/>
<path fill="#8210CE" opacity="1.000000" stroke="none" 
	d="
M274.058685,177.584351 
	C247.324066,204.961166 220.349152,232.099350 193.261749,259.124756 
	C191.235214,261.146698 188.403976,262.362061 185.595169,263.979828 
	C185.181030,248.315140 185.118515,232.622971 185.041977,216.461914 
	C187.169510,214.010040 189.375183,212.091385 191.441940,210.033264 
	C202.380371,199.140503 213.301361,188.229996 224.177597,177.275223 
	C225.554565,175.888321 226.633514,174.205505 227.925964,172.325104 
	C243.555206,171.266861 259.031067,171.212921 274.058685,177.584351 
z"/>
<path fill="#6213C1" opacity="1.000000" stroke="none" 
	d="
M243.428864,342.346588 
	C243.931625,340.366058 244.492432,338.132477 245.887878,336.728455 
	C271.445282,311.013855 297.088623,285.384521 322.775391,259.798981 
	C324.261261,258.318970 326.272461,257.366302 328.361877,256.084778 
	C330.690948,288.292450 308.271454,323.128418 278.386566,335.482544 
	C267.179626,340.115448 256.058838,343.472961 243.428864,342.346588 
z"/>
</svg>